<?xml version="1.0" encoding="utf-8"?>
<!-- Generator: Adobe Illustrator 16.0.0, SVG Export Plug-In . SVG Version: 6.00 Build 0)  -->
<!DOCTYPE svg PUBLIC "-//W3C//DTD SVG 1.1//EN" "http://www.w3.org/Graphics/SVG/1.1/DTD/svg11.dtd">
<svg version="1.1" id="Ebene_1" xmlns="http://www.w3.org/2000/svg" xmlns:xlink="http://www.w3.org/1999/xlink" x="0px" y="0px"
	 width="192.33px" height="35.44px" viewBox="0 0 192.33 35.44" enable-background="new 0 0 192.33 35.44" xml:space="preserve">
<g>
	<g>
		<path d="M76.356,26.097c-0.453,0-0.679-0.209-0.679-0.626v-3.967c0-0.418,0.226-0.626,0.679-0.626h12.108
			c0.382,0,0.696-0.122,0.939-0.365c0.243-0.243,0.365-0.557,0.365-0.939v-2.61c0-0.382-0.122-0.695-0.365-0.939
			c-0.244-0.243-0.557-0.365-0.939-0.365h-7.568c-1.461,0-2.697-0.504-3.706-1.514c-1.01-1.009-1.514-2.245-1.514-3.706V5.22
			c0-1.461,0.504-2.696,1.514-3.705C78.2,0.505,79.436,0,80.897,0h13.935c0.452,0,0.678,0.209,0.678,0.626v3.966
			c0,0.417-0.227,0.626-0.678,0.626H83.246c-0.383,0-0.696,0.123-0.939,0.365c-0.244,0.244-0.365,0.557-0.365,0.939v2.61
			c0,0.383,0.121,0.696,0.365,0.939c0.243,0.244,0.556,0.365,0.939,0.365h7.568c1.461,0,2.696,0.505,3.705,1.514
			c1.009,1.009,1.514,2.244,1.514,3.705v5.22c0,1.461-0.504,2.696-1.514,3.705c-1.009,1.01-2.244,1.514-3.705,1.514H76.356z"/>
		<path d="M135.438,5.22c-0.383,0-0.696,0.123-0.938,0.365c-0.244,0.244-0.366,0.557-0.366,0.939v18.894
			c0,0.453-0.208,0.679-0.627,0.679h-5.01c-0.418,0-0.626-0.226-0.626-0.679V5.22c0-1.461,0.503-2.696,1.514-3.705
			C130.393,0.505,131.627,0,133.09,0h7.15c0.451,0,0.679,0.209,0.679,0.626v3.966c0,0.417-0.228,0.626-0.679,0.626H135.438z"/>
		<path d="M150.312,26.097c-1.461,0-2.696-0.504-3.704-1.514c-1.01-1.009-1.516-2.244-1.516-3.705V5.22
			c0-1.461,0.506-2.696,1.516-3.705C147.615,0.505,148.851,0,150.312,0h10.439c1.461,0,2.695,0.505,3.706,1.514
			c1.009,1.009,1.514,2.244,1.514,3.705v5.219c0,1.461-0.505,2.697-1.514,3.706c-1.011,1.01-2.245,1.514-3.706,1.514h-9.396v3.915
			c0,0.383,0.121,0.696,0.365,0.939s0.557,0.365,0.941,0.365h11.064c0.451,0,0.678,0.208,0.678,0.626v3.967
			c0,0.417-0.227,0.626-0.678,0.626H150.312z M151.355,11.744c0-0.382,0.121-0.695,0.365-0.939c0.244-0.243,0.557-0.365,0.941-0.365
			h5.74c0.383,0,0.695-0.122,0.939-0.365c0.242-0.243,0.365-0.556,0.365-0.939v-2.61c0-0.382-0.123-0.695-0.365-0.939
			c-0.244-0.243-0.557-0.365-0.939-0.365h-5.74c-0.385,0-0.697,0.123-0.941,0.365c-0.244,0.244-0.365,0.557-0.365,0.939V11.744z"/>
		<path d="M176.67,26.097c-1.462,0-2.697-0.504-3.706-1.514c-1.01-1.009-1.514-2.244-1.514-3.705V5.22
			c0-1.461,0.504-2.696,1.514-3.705C173.973,0.505,175.208,0,176.67,0h10.439c1.461,0,2.696,0.505,3.704,1.514
			c1.009,1.009,1.515,2.244,1.515,3.705v5.219c0,1.461-0.506,2.697-1.515,3.706c-1.008,1.01-2.243,1.514-3.704,1.514h-9.396v3.915
			c0,0.383,0.122,0.696,0.366,0.939c0.242,0.243,0.557,0.365,0.938,0.365h11.065c0.452,0,0.679,0.208,0.679,0.626v3.967
			c0,0.417-0.227,0.626-0.679,0.626H176.67z M177.713,11.744c0-0.382,0.122-0.695,0.366-0.939c0.242-0.243,0.557-0.365,0.938-0.365
			h5.742c0.382,0,0.695-0.122,0.939-0.365c0.242-0.243,0.365-0.556,0.365-0.939v-2.61c0-0.382-0.123-0.695-0.365-0.939
			c-0.244-0.243-0.558-0.365-0.939-0.365h-5.742c-0.382,0-0.696,0.123-0.938,0.365c-0.244,0.244-0.366,0.557-0.366,0.939V11.744z"/>
		<path d="M120.876,1.515C119.866,0.505,118.631,0,117.17,0h-10.438c-1.462,0-2.696,0.505-3.706,1.514
			c-1.009,1.009-1.514,2.244-1.514,3.705v30.223l6.264-6.263v-3.083h9.395c1.461,0,2.696-0.504,3.706-1.514
			c1.009-1.009,1.513-2.244,1.513-3.705V5.22C122.389,3.759,121.885,2.524,120.876,1.515z M116.125,19.573
			c0,0.383-0.121,0.696-0.363,0.939c-0.244,0.243-0.557,0.365-0.939,0.365h-5.742c-0.383,0-0.695,0.122-0.939,0.364
			c-0.244,0.244-0.365,0.558-0.365,0.94V6.524c0-0.382,0.121-0.695,0.365-0.939c0.244-0.243,0.557-0.365,0.939-0.365h5.742
			c0.383,0,0.695,0.123,0.939,0.365c0.242,0.244,0.363,0.557,0.363,0.939V19.573z"/>
		<path d="M31.733,0h-2.922c-0.418,0-0.626,0.227-0.626,0.678V21.66c0,0.384-0.123,0.697-0.366,0.939
			c-0.244,0.244-0.557,0.366-0.939,0.366h-6.842l-1.77-1.476V0.679C18.268,0.227,18.059,0,17.641,0h-2.923
			c-0.417,0-0.626,0.227-0.626,0.678v20.913l-1.647,1.374H5.48c-0.384,0-0.697-0.122-0.94-0.366
			c-0.244-0.242-0.365-0.556-0.365-0.939V0.679C4.176,0.227,3.967,0,3.549,0H0.626C0.209,0,0,0.227,0,0.679v20.199
			c0,1.461,0.504,2.696,1.514,3.705c1.008,1.01,2.244,1.514,3.706,1.514h8.695l2.326-1.938l2.327,1.938h8.573
			c1.461,0,2.696-0.504,3.705-1.514c1.009-1.009,1.514-2.244,1.514-3.705V0.679C32.359,0.227,32.15,0,31.733,0z"/>
		<path d="M69.573,0H66.65c-0.418,0-0.626,0.227-0.626,0.679V21.66c0,0.384-0.123,0.696-0.366,0.939
			c-0.244,0.243-0.557,0.365-0.939,0.365h-6.842l-1.77-1.475V0.679C56.107,0.227,55.898,0,55.48,0h-2.922
			c-0.417,0-0.627,0.227-0.627,0.679v20.913l-1.647,1.373H43.32c-0.384,0-0.697-0.122-0.939-0.365
			c-0.244-0.243-0.365-0.556-0.365-0.939V0.679C42.015,0.227,41.806,0,41.389,0h-2.923c-0.417,0-0.626,0.227-0.626,0.679v20.198
			c0,1.462,0.504,2.697,1.514,3.706c1.009,1.01,2.244,1.513,3.706,1.513h8.695l2.326-1.938l2.328,1.938h8.573
			c1.461,0,2.696-0.503,3.706-1.513c1.009-1.009,1.514-2.244,1.514-3.706V0.679C70.199,0.227,69.99,0,69.573,0z"/>
	</g>
</g>
</svg>
